<mxfile host="app.diagrams.net" agent="Mozilla/5.0 (Windows NT 10.0; Win64; x64) AppleWebKit/537.36 (KHTML, like Gecko) Chrome/130.0.0.0 Safari/537.36" version="24.8.3">
  <diagram name="Page-1" id="42789a77-a242-8287-6e28-9cd8cfd52e62">
    <mxGraphModel dx="1461" dy="725" grid="1" gridSize="10" guides="1" tooltips="1" connect="1" arrows="1" fold="1" page="1" pageScale="1" pageWidth="1100" pageHeight="850" background="none" math="0" shadow="0">
      <root>
        <mxCell id="0" />
        <mxCell id="1" parent="0" />
        <mxCell id="8tBLVk2OHSFuPtX2w-wi-3" value="" style="rounded=1;whiteSpace=wrap;html=1;fillColor=none;" parent="1" vertex="1">
          <mxGeometry x="210" y="140" width="550" height="410" as="geometry" />
        </mxCell>
        <mxCell id="1ea317790d2ca983-1" value="Ui" style="ellipse;whiteSpace=wrap;html=1;rounded=0;shadow=1;comic=0;labelBackgroundColor=none;strokeWidth=1;fontFamily=Verdana;fontSize=12;align=center;fillColor=#fad7ac;strokeColor=#b46504;" parent="1" vertex="1">
          <mxGeometry x="454.75" y="180" width="90" height="60" as="geometry" />
        </mxCell>
        <mxCell id="8tBLVk2OHSFuPtX2w-wi-17" style="rounded=0;orthogonalLoop=1;jettySize=auto;html=1;entryX=1;entryY=0.5;entryDx=0;entryDy=0;exitX=0.294;exitY=0.967;exitDx=0;exitDy=0;exitPerimeter=0;" parent="1" source="1ea317790d2ca983-2" target="1ea317790d2ca983-3" edge="1">
          <mxGeometry relative="1" as="geometry" />
        </mxCell>
        <mxCell id="8tBLVk2OHSFuPtX2w-wi-18" value="log" style="edgeLabel;html=1;align=center;verticalAlign=middle;resizable=0;points=[];" parent="8tBLVk2OHSFuPtX2w-wi-17" vertex="1" connectable="0">
          <mxGeometry x="0.0005" y="-3" relative="1" as="geometry">
            <mxPoint x="2" y="13" as="offset" />
          </mxGeometry>
        </mxCell>
        <mxCell id="1ea317790d2ca983-2" value="&lt;span&gt;Wiagi&lt;/span&gt;" style="ellipse;whiteSpace=wrap;html=1;rounded=0;shadow=1;comic=0;labelBackgroundColor=none;strokeWidth=1;fontFamily=Verdana;fontSize=12;align=center;fillColor=#f5f5f5;gradientColor=#b3b3b3;strokeColor=#666666;" parent="1" vertex="1">
          <mxGeometry x="462.25" y="330" width="75" height="50" as="geometry" />
        </mxCell>
        <mxCell id="1ea317790d2ca983-3" value="&lt;span&gt;WiagiLogger&lt;/span&gt;" style="ellipse;whiteSpace=wrap;html=1;rounded=0;shadow=1;comic=0;labelBackgroundColor=none;strokeWidth=1;fontFamily=Verdana;fontSize=12;align=center;fillColor=#b1ddf0;strokeColor=#10739e;" parent="1" vertex="1">
          <mxGeometry x="240" y="425" width="95" height="50" as="geometry" />
        </mxCell>
        <mxCell id="1ea317790d2ca983-9" value="Storage" style="ellipse;whiteSpace=wrap;html=1;rounded=0;shadow=1;comic=0;labelBackgroundColor=none;strokeWidth=1;fontFamily=Verdana;fontSize=12;align=center;fillColor=#1ba1e2;strokeColor=#006EAF;fontColor=#ffffff;" parent="1" vertex="1">
          <mxGeometry x="260" y="330" width="75" height="50" as="geometry" />
        </mxCell>
        <mxCell id="8tBLVk2OHSFuPtX2w-wi-1" value="" style="verticalLabelPosition=bottom;sketch=0;html=1;fillColor=#f8cecc;strokeColor=#b85450;verticalAlign=top;pointerEvents=1;align=center;shape=mxgraph.cisco_safe.people_places_things_icons.icon8;gradientColor=#ea6b66;" parent="1" vertex="1">
          <mxGeometry x="490" y="50" width="19.5" height="50" as="geometry" />
        </mxCell>
        <mxCell id="8tBLVk2OHSFuPtX2w-wi-10" value="User" style="text;html=1;align=center;verticalAlign=middle;resizable=0;points=[];autosize=1;strokeColor=#ae4132;fillColor=#fad9d5;" parent="1" vertex="1">
          <mxGeometry x="420" y="60" width="50" height="30" as="geometry" />
        </mxCell>
        <mxCell id="8tBLVk2OHSFuPtX2w-wi-23" value="Parser" style="ellipse;whiteSpace=wrap;html=1;rounded=0;shadow=1;comic=0;labelBackgroundColor=none;strokeWidth=1;fontFamily=Verdana;fontSize=12;align=center;fillColor=#d5e8d4;gradientColor=#97d077;strokeColor=#82b366;" parent="1" vertex="1">
          <mxGeometry x="660" y="330" width="75" height="50" as="geometry" />
        </mxCell>
        <mxCell id="8tBLVk2OHSFuPtX2w-wi-28" style="rounded=0;orthogonalLoop=1;jettySize=auto;html=1;entryX=0.5;entryY=0;entryDx=0;entryDy=0;exitX=0.5;exitY=1;exitDx=0;exitDy=0;" parent="1" source="1ea317790d2ca983-2" target="8tBLVk2OHSFuPtX2w-wi-26" edge="1">
          <mxGeometry relative="1" as="geometry" />
        </mxCell>
        <mxCell id="8tBLVk2OHSFuPtX2w-wi-29" value="execute" style="edgeLabel;html=1;align=center;verticalAlign=middle;resizable=0;points=[];" parent="8tBLVk2OHSFuPtX2w-wi-28" vertex="1" connectable="0">
          <mxGeometry x="-0.1089" y="-2" relative="1" as="geometry">
            <mxPoint x="26" y="31" as="offset" />
          </mxGeometry>
        </mxCell>
        <mxCell id="8tBLVk2OHSFuPtX2w-wi-26" value="Command" style="ellipse;whiteSpace=wrap;html=1;rounded=0;shadow=1;comic=0;labelBackgroundColor=none;strokeWidth=1;fontFamily=Verdana;fontSize=12;align=center;fillColor=#e6d0de;gradientColor=#d5739d;strokeColor=#996185;" parent="1" vertex="1">
          <mxGeometry x="462.25" y="475" width="75" height="50" as="geometry" />
        </mxCell>
        <mxCell id="8tBLVk2OHSFuPtX2w-wi-30" value="" style="image;aspect=fixed;html=1;points=[];align=center;fontSize=12;image=img/lib/azure2/general/Files.svg;" parent="1" vertex="1">
          <mxGeometry x="140" y="330" width="44" height="48.13" as="geometry" />
        </mxCell>
        <mxCell id="8tBLVk2OHSFuPtX2w-wi-32" value="Text files" style="text;html=1;align=center;verticalAlign=middle;resizable=0;points=[];autosize=1;strokeColor=#10739e;fillColor=#b1ddf0;" parent="1" vertex="1">
          <mxGeometry x="124" y="290" width="70" height="30" as="geometry" />
        </mxCell>
        <mxCell id="8tBLVk2OHSFuPtX2w-wi-43" value="" style="endArrow=classic;startArrow=classic;html=1;rounded=0;entryX=0;entryY=0.5;entryDx=0;entryDy=0;exitX=0.973;exitY=0.484;exitDx=0;exitDy=0;exitPerimeter=0;" parent="1" source="8tBLVk2OHSFuPtX2w-wi-30" target="1ea317790d2ca983-9" edge="1">
          <mxGeometry width="50" height="50" relative="1" as="geometry">
            <mxPoint x="110" y="220" as="sourcePoint" />
            <mxPoint x="420" y="340" as="targetPoint" />
          </mxGeometry>
        </mxCell>
        <mxCell id="8tBLVk2OHSFuPtX2w-wi-44" value="" style="endArrow=classic;startArrow=classic;html=1;rounded=0;exitX=0;exitY=0.5;exitDx=0;exitDy=0;entryX=0.455;entryY=1.039;entryDx=0;entryDy=0;entryPerimeter=0;edgeStyle=orthogonalEdgeStyle;" parent="1" source="1ea317790d2ca983-3" target="8tBLVk2OHSFuPtX2w-wi-30" edge="1">
          <mxGeometry width="50" height="50" relative="1" as="geometry">
            <mxPoint x="370" y="390" as="sourcePoint" />
            <mxPoint x="150" y="410" as="targetPoint" />
          </mxGeometry>
        </mxCell>
        <mxCell id="8tBLVk2OHSFuPtX2w-wi-49" value="" style="endArrow=classic;startArrow=classic;html=1;rounded=0;exitX=1;exitY=0.5;exitDx=0;exitDy=0;entryX=0;entryY=0.5;entryDx=0;entryDy=0;" parent="1" source="1ea317790d2ca983-9" target="1ea317790d2ca983-2" edge="1">
          <mxGeometry width="50" height="50" relative="1" as="geometry">
            <mxPoint x="440" y="400" as="sourcePoint" />
            <mxPoint x="490" y="350" as="targetPoint" />
          </mxGeometry>
        </mxCell>
        <mxCell id="8tBLVk2OHSFuPtX2w-wi-50" value="save" style="edgeLabel;html=1;align=center;verticalAlign=middle;resizable=0;points=[];" parent="8tBLVk2OHSFuPtX2w-wi-49" vertex="1" connectable="0">
          <mxGeometry x="-0.6891" relative="1" as="geometry">
            <mxPoint y="-15" as="offset" />
          </mxGeometry>
        </mxCell>
        <mxCell id="8tBLVk2OHSFuPtX2w-wi-51" value="load" style="edgeLabel;html=1;align=center;verticalAlign=middle;resizable=0;points=[];" parent="8tBLVk2OHSFuPtX2w-wi-49" vertex="1" connectable="0">
          <mxGeometry x="0.6767" y="-1" relative="1" as="geometry">
            <mxPoint x="8" y="14" as="offset" />
          </mxGeometry>
        </mxCell>
        <mxCell id="8tBLVk2OHSFuPtX2w-wi-52" value="" style="endArrow=classic;startArrow=classic;html=1;rounded=0;entryX=0;entryY=0.5;entryDx=0;entryDy=0;" parent="1" source="1ea317790d2ca983-2" target="8tBLVk2OHSFuPtX2w-wi-23" edge="1">
          <mxGeometry width="50" height="50" relative="1" as="geometry">
            <mxPoint x="537.25" y="354.66" as="sourcePoint" />
            <mxPoint x="664.25" y="354.66" as="targetPoint" />
          </mxGeometry>
        </mxCell>
        <mxCell id="8tBLVk2OHSFuPtX2w-wi-53" value="command" style="edgeLabel;html=1;align=center;verticalAlign=middle;resizable=0;points=[];" parent="8tBLVk2OHSFuPtX2w-wi-52" vertex="1" connectable="0">
          <mxGeometry x="-0.6891" relative="1" as="geometry">
            <mxPoint x="13" y="-15" as="offset" />
          </mxGeometry>
        </mxCell>
        <mxCell id="8tBLVk2OHSFuPtX2w-wi-54" value="user input" style="edgeLabel;html=1;align=center;verticalAlign=middle;resizable=0;points=[];" parent="8tBLVk2OHSFuPtX2w-wi-52" vertex="1" connectable="0">
          <mxGeometry x="0.6767" y="-1" relative="1" as="geometry">
            <mxPoint x="-10" y="14" as="offset" />
          </mxGeometry>
        </mxCell>
        <mxCell id="8tBLVk2OHSFuPtX2w-wi-55" value="" style="endArrow=classic;startArrow=classic;html=1;rounded=0;exitX=0.5;exitY=0;exitDx=0;exitDy=0;entryX=0.5;entryY=1;entryDx=0;entryDy=0;" parent="1" source="1ea317790d2ca983-2" target="1ea317790d2ca983-1" edge="1">
          <mxGeometry width="50" height="50" relative="1" as="geometry">
            <mxPoint x="440" y="330" as="sourcePoint" />
            <mxPoint x="490" y="280" as="targetPoint" />
          </mxGeometry>
        </mxCell>
        <mxCell id="8tBLVk2OHSFuPtX2w-wi-56" value="print" style="edgeLabel;html=1;align=center;verticalAlign=middle;resizable=0;points=[];" parent="8tBLVk2OHSFuPtX2w-wi-55" vertex="1" connectable="0">
          <mxGeometry x="0.7292" y="2" relative="1" as="geometry">
            <mxPoint x="-18" as="offset" />
          </mxGeometry>
        </mxCell>
        <mxCell id="8tBLVk2OHSFuPtX2w-wi-57" value="read" style="edgeLabel;html=1;align=center;verticalAlign=middle;resizable=0;points=[];" parent="8tBLVk2OHSFuPtX2w-wi-55" vertex="1" connectable="0">
          <mxGeometry x="-0.5888" y="-1" relative="1" as="geometry">
            <mxPoint x="19" as="offset" />
          </mxGeometry>
        </mxCell>
        <mxCell id="8tBLVk2OHSFuPtX2w-wi-58" value="" style="endArrow=classic;startArrow=classic;html=1;rounded=0;exitX=0.5;exitY=0;exitDx=0;exitDy=0;" parent="1" source="1ea317790d2ca983-1" target="8tBLVk2OHSFuPtX2w-wi-1" edge="1">
          <mxGeometry width="50" height="50" relative="1" as="geometry">
            <mxPoint x="510" y="340" as="sourcePoint" />
            <mxPoint x="510" y="250" as="targetPoint" />
          </mxGeometry>
        </mxCell>
        <mxCell id="8tBLVk2OHSFuPtX2w-wi-59" value="output" style="edgeLabel;html=1;align=center;verticalAlign=middle;resizable=0;points=[];" parent="8tBLVk2OHSFuPtX2w-wi-58" vertex="1" connectable="0">
          <mxGeometry x="0.7292" y="2" relative="1" as="geometry">
            <mxPoint x="-25" y="1" as="offset" />
          </mxGeometry>
        </mxCell>
        <mxCell id="8tBLVk2OHSFuPtX2w-wi-60" value="input" style="edgeLabel;html=1;align=center;verticalAlign=middle;resizable=0;points=[];" parent="8tBLVk2OHSFuPtX2w-wi-58" vertex="1" connectable="0">
          <mxGeometry x="-0.5888" y="-1" relative="1" as="geometry">
            <mxPoint x="19" as="offset" />
          </mxGeometry>
        </mxCell>
        <mxCell id="4A-Cz-QOiqXuP8oQcpIR-1" value="Program code" style="text;html=1;align=center;verticalAlign=middle;resizable=0;points=[];autosize=1;strokeColor=none;fillColor=none;" vertex="1" parent="1">
          <mxGeometry x="247.5" y="160" width="100" height="30" as="geometry" />
        </mxCell>
        <mxCell id="4A-Cz-QOiqXuP8oQcpIR-2" value="User-editable Content" style="text;html=1;align=center;verticalAlign=middle;resizable=0;points=[];autosize=1;strokeColor=none;fillColor=none;" vertex="1" parent="1">
          <mxGeometry x="240" y="100" width="140" height="30" as="geometry" />
        </mxCell>
      </root>
    </mxGraphModel>
  </diagram>
</mxfile>
